<?xml version="1.0" encoding="utf-8"?>
<!-- Generator: Adobe Illustrator 27.2.0, SVG Export Plug-In . SVG Version: 6.00 Build 0)  -->
<svg version="1.1" id="Layer_1" xmlns="http://www.w3.org/2000/svg" xmlns:xlink="http://www.w3.org/1999/xlink" x="0px" y="0px"
	 viewBox="0 0 205 224.3" style="enable-background:new 0 0 205 224.3;" xml:space="preserve">
<style type="text/css">
	.st0{clip-path:url(#SVGID_00000065076596132251834880000012198426222912177048_);}
	.st1{fill:#A67C00;}
	.st2{clip-path:url(#SVGID_00000084509208407099760110000002638137966611430566_);}
	.st3{fill:#C99700;}
	.st4{fill:#856300;}
</style>
<g>
	<defs>
		<path id="SVGID_1_" d="M204.6,87.1c-2.2-6.4-15.1-4.8-22.3-6.4c-7.2-1.6-8.4-5.3-12.7-15.7c0-0.1-0.1-0.2-0.1-0.3
			c-0.4-0.9-0.7-1.9-1.1-2.8c-1.8-5.2-3-10.8-4.6-16.2c-1.5-4.9-3.4-9.6-6.6-13.6c-3.8-4.8-7.2-7.2-11.1-8.8
			c-3.5-1.4-7.4-2.2-12.4-3.5c-0.3-0.1-0.6-0.1-0.8-0.2c-1.6-0.3-5,0.4-5.3,0.9c0.3-0.5-11.3,2.3-19.5,3.6c-1.6,0.2-2.9,0.1-4.1-0.2
			C97.3,21.9,95.2,12,89.6,7c-6.7-5.9-7.8-9.6-16.7-4.8C63.9,7,30.4,11.8,29.3,15.5c-1.1,3.7-5.6,9.1-7.3,12.3
			C20.4,31,13.7,32.6,9.2,38c-4.5,5.3-10,12.3-8.9,22.4c0.3,3.1,0.5,6.2,0.5,9.1l-0.5,11c0,0.2,0,0.2,0,0.2h0c0,0-0.5,2.9-0.2,3.7
			c2.8,6.4,14.7,12.8,21.4,18.7c6.7,5.9,6.7,6.9,12.8,5.3c6.1-1.6,16.2-5.9,25.1-3.7c1.4,0.3,2.6,0.6,3.7,0.9
			c6.1,1.4,7.8,1.8,9.7,7.2c0.7,2.1,0.8,5.2,2.3,9.9c1.9,5.8,7.2,12.7,8.2,13.8c0.9,0.9,3.1,2.8,3.8,3.5c1.5,1.4,1.8,2.4,1.8,5.9
			c0,7.6-0.9,11.8-0.3,19c0.1,0.9,0.2,1.9,0.3,2.9c0,0.3,0.1,0.6,0.1,0.9c1.2,9,4,20.9,9.9,33.3c0.4,0.7,0.7,1.5,1,2.2
			c0.8,1.7,1.4,3.2,2,4.7c3.3,8.4,4,13.2,9.3,14.5c1.4,0.3,3.6,0.8,6.2,1c1.1,0.1,2.3,0.1,3.6,0.1c7.2-0.2,15.9-3,19.8-13.9
			c2.7-7.5,2.8-9.1,7.8-11.7c5-2.7,6.7-4.3,7.3-9.6c0.6-5.3,2.2-7.5,8.9-15.5c5.4-6.5,7.9-9.8,8.1-14.5c0-0.5,0-1,0-1.5
			c0-0.7-0.1-1.4-0.2-2.1c-0.9-5.3-1.7-10-2.1-15.1c-0.1-1.6-0.2-3.2-0.2-4.9c0-1.2,0.2-2.2,0.7-3c2.2-4.3,9.5-6.2,17.3-13.8
			c0.5-0.5,1-1,1.5-1.5c0.8-0.8,1.6-1.7,2.3-2.5C201.1,104.3,206.6,93,204.6,87.1z"/>
	</defs>
	<clipPath id="SVGID_00000124130931499748300640000018380986546767634868_">
		<use xlink:href="#SVGID_1_"  style="overflow:visible;"/>
	</clipPath>
	<g style="clip-path:url(#SVGID_00000124130931499748300640000018380986546767634868_);">
		<path class="st1" d="M204.6,87.1c-2.2-6.4-15.1-4.8-22.3-6.4c-7.2-1.6-8.4-5.3-12.7-15.7c0-0.1-0.1-0.2-0.1-0.3
			c-0.4-0.9-0.7-1.9-1.1-2.8c-1.8-5.2-3-10.8-4.6-16.2c-1.5-4.9-3.4-9.6-6.6-13.6c-3.8-4.8-7.2-7.2-11.1-8.8
			c-3.5-1.4-7.4-2.2-12.4-3.5c-0.3-0.1-0.6-0.1-0.8-0.2c-1.6-0.3-5,0.4-5.3,0.9c0.3-0.5-11.3,2.3-19.5,3.6c-1.6,0.2-2.9,0.1-4.1-0.2
			C97.3,21.9,95.2,12,89.6,7c-6.7-5.9-7.8-9.6-16.7-4.8C63.9,7,30.4,11.8,29.3,15.5c-1.1,3.7-5.6,9.1-7.3,12.3
			C20.4,31,13.7,32.6,9.2,38c-4.5,5.3-10,12.3-8.9,22.4c0.3,3.1,0.5,6.2,0.5,9.1l-0.5,11c0,0.2,0,0.2,0,0.2h0c0,0-0.5,2.9-0.2,3.7
			c2.8,6.4,14.7,12.8,21.4,18.7c6.7,5.9,6.7,6.9,12.8,5.3c6.1-1.6,16.2-5.9,25.1-3.7c1.4,0.3,2.6,0.6,3.7,0.9
			c6.1,1.4,8.3,2.2,9.7,7.2c0.5,1.7,1,3.5,1.6,5.4c0.6,1.8,1.2,3.7,2.1,5.5c1.3,2.8,2.9,5.6,5.2,8.4c1.7,2.1,3.1,3.4,4.2,4.5
			c0.9,0.9,1.6,1.7,2.1,2.6c0.7,1.4,1,3.2,1,6.6c0,7.6-0.9,11.8-0.3,19c0.1,0.9,0.2,1.9,0.3,2.9c0,0.3,0.1,0.6,0.1,0.9
			c1.2,9,4,20.9,9.9,33.3c0.4,0.7,0.7,1.5,1,2.2c0.8,1.7,1.4,3.2,2,4.7c3.3,8.4,4,13.2,9.3,14.5c1.4,0.3,3.6,0.8,6.2,1
			c1.1,0.1,2.3,0.1,3.6,0.1c7.2-0.2,15.9-3,19.8-13.9c2.7-7.5,2.8-9.1,7.8-11.7c5-2.7,6.7-4.3,7.3-9.6c0.6-5.3,2.2-7.5,8.9-15.5
			c5.4-6.5,7.9-9.8,8.1-14.5c0-0.5,0-1,0-1.5c0-0.7-0.1-1.4-0.2-2.1c-0.9-5.3-1.7-10-2.1-15.1c-0.1-1.6-0.2-3.2-0.2-4.9
			c0-1.2,0.2-2.2,0.7-3c2.2-4.3,9.5-6.2,17.3-13.8c0.5-0.5,1-1,1.5-1.5c0.8-0.8,1.6-1.7,2.3-2.5C201.1,104.3,206.6,93,204.6,87.1z"
			/>
		<g>
			<defs>
				<path id="SVGID_00000067950173004580800280000004421068370555469713_" d="M204.6,87.1c-2.2-6.4-15.1-4.8-22.3-6.4
					c-7.2-1.6-8.4-5.3-12.7-15.7c0-0.1-0.1-0.2-0.1-0.3c-0.4-0.9-0.7-1.9-1.1-2.8c-1.8-5.2-3-10.8-4.6-16.2
					c-1.5-4.9-3.4-9.6-6.6-13.6c-3.8-4.8-7.2-7.2-11.1-8.8c-3.5-1.4-7.4-2.2-12.4-3.5c-0.3-0.1-0.6-0.1-0.8-0.2
					c-1.6-0.3-5,0.4-5.3,0.9c0.3-0.5-11.3,2.3-19.5,3.6c-1.6,0.2-2.9,0.1-4.1-0.2C97.3,21.9,95.2,12,89.6,7
					c-6.7-5.9-7.8-9.6-16.7-4.8C63.9,7,30.4,11.8,29.3,15.5c-1.1,3.7-5.6,9.1-7.3,12.3C20.4,31,13.7,32.6,9.2,38
					c-4.5,5.3-10,12.3-8.9,22.4c0.3,3.1,0.5,6.2,0.5,9.1l-0.5,11c0,0.2,0,0.2,0,0.2h0c0,0-0.5,2.9-0.2,3.7
					c2.8,6.4,14.7,12.8,21.4,18.7c6.7,5.9,6.7,6.9,12.8,5.3c6.1-1.6,16.2-5.9,25.1-3.7c1.4,0.3,2.6,0.6,3.7,0.9
					c6.1,1.4,8.3,2.2,9.7,7.2c0.5,1.7,1,3.5,1.6,5.4c0.6,1.8,1.2,3.7,2.1,5.5c1.3,2.8,2.9,5.6,5.2,8.4c1.7,2.1,3.1,3.4,4.2,4.5
					c0.9,0.9,1.6,1.7,2.1,2.6c0.7,1.4,1,3.2,1,6.6c0,7.6-0.9,11.8-0.3,19c0.1,0.9,0.2,1.9,0.3,2.9c0,0.3,0.1,0.6,0.1,0.9
					c1.2,9,4,20.9,9.9,33.3c0.4,0.7,0.7,1.5,1,2.2c0.8,1.7,1.4,3.2,2,4.7c3.3,8.4,4,13.2,9.3,14.5c1.4,0.3,3.6,0.8,6.2,1
					c1.1,0.1,2.3,0.1,3.6,0.1c7.2-0.2,15.9-3,19.8-13.9c2.7-7.5,2.8-9.1,7.8-11.7c5-2.7,6.7-4.3,7.3-9.6c0.6-5.3,2.2-7.5,8.9-15.5
					c5.4-6.5,7.9-9.8,8.1-14.5c0-0.5,0-1,0-1.5c0-0.7-0.1-1.4-0.2-2.1c-0.9-5.3-1.7-10-2.1-15.1c-0.1-1.6-0.2-3.2-0.2-4.9
					c0-1.2,0.2-2.2,0.7-3c2.2-4.3,9.5-6.2,17.3-13.8c0.5-0.5,1-1,1.5-1.5c0.8-0.8,1.6-1.7,2.3-2.5C201.1,104.3,206.6,93,204.6,87.1z
					"/>
			</defs>
			<clipPath id="SVGID_00000126292605310967946870000016641060505851245962_">
				<use xlink:href="#SVGID_00000067950173004580800280000004421068370555469713_"  style="overflow:visible;"/>
			</clipPath>
			<g style="clip-path:url(#SVGID_00000126292605310967946870000016641060505851245962_);">
				<g>
					<g>
						<polygon class="st3" points="107.6,229.4 134.1,229.4 169.3,-1.9 142.8,-1.9 						"/>
						<path class="st4" d="M135.6,231.2h-30l0.3-2L141.3-3.6h30l-0.3,2L135.6,231.2z M109.6,227.7h23L167.3-0.1h-23L109.6,227.7z"/>
					</g>
					<g>
						
							<rect x="21.5" y="112" transform="matrix(0.1503 -0.9886 0.9886 0.1503 5.1677 233.5697)" class="st4" width="234" height="3.5"/>
					</g>
					<g>
						<polygon class="st3" points="144.6,-1.9 171.1,-1.9 206.3,229.4 179.8,229.4 						"/>
						<path class="st4" d="M208.3,231.2h-30l-0.2-1.5L142.6-3.6h30l0.2,1.5L208.3,231.2z M181.3,227.7h23L169.6-0.1h-23L181.3,227.7
							z"/>
					</g>
					<g>
						
							<rect x="173.7" y="-3.2" transform="matrix(0.9886 -0.1505 0.1505 0.9886 -15.1219 27.6923)" class="st4" width="3.5" height="234"/>
					</g>
				</g>
				<g>
					<g>
						<polygon class="st3" points="97.4,-1.9 70.9,-1.9 35.7,229.4 62.2,229.4 						"/>
						<path class="st4" d="M63.7,231.2h-30l0.3-2L69.4-3.6h30l-0.3,2L63.7,231.2z M37.7,227.7h23L95.4-0.1h-23L37.7,227.7z"/>
					</g>
					<g>
						
							<rect x="-50.5" y="112" transform="matrix(0.1503 -0.9886 0.9886 0.1503 -55.9592 162.4442)" class="st4" width="234" height="3.5"/>
					</g>
					<g>
						<polygon class="st3" points="60.4,229.4 33.9,229.4 -1.3,-1.9 25.2,-1.9 						"/>
						<path class="st4" d="M62.4,231.2h-30l-0.2-1.5L-3.3-3.6h30l0.2,1.5L62.4,231.2z M35.4,227.7h23L23.7-0.1h-23L35.4,227.7z"/>
					</g>
					<g>
						
							<rect x="27.8" y="-3.2" transform="matrix(0.9886 -0.1505 0.1505 0.9886 -16.7826 5.7424)" class="st4" width="3.5" height="234"/>
					</g>
					<g>
						<polygon class="st3" points="134,229.4 107.5,229.4 72.3,-1.9 98.8,-1.9 						"/>
						<path class="st4" d="M136.1,231.2h-30l-0.2-1.5L70.3-3.6h30l0.2,1.5L136.1,231.2z M109,227.7h23L97.3-0.1h-23L109,227.7z"/>
					</g>
					<g>
						
							<rect x="101.5" y="-3.2" transform="matrix(0.9886 -0.1505 0.1505 0.9886 -15.9444 16.8209)" class="st4" width="3.5" height="234"/>
					</g>
				</g>
			</g>
		</g>
		<g>
			<g>
				<circle class="st3" cx="114.7" cy="108.1" r="40.1"/>
				<path class="st4" d="M114.7,150.5c-23.4,0-42.4-19-42.4-42.4s19-42.4,42.4-42.4s42.4,19,42.4,42.4S138.1,150.5,114.7,150.5z
					 M114.7,70.3c-20.8,0-37.8,17-37.8,37.8s17,37.8,37.8,37.8s37.8-17,37.8-37.8S135.6,70.3,114.7,70.3z"/>
			</g>
			<g>
				<path class="st4" d="M114.7,140c-17.6,0-31.8-14.3-31.8-31.8s14.3-31.8,31.8-31.8s31.8,14.3,31.8,31.8S132.3,140,114.7,140z
					 M114.7,80.9c-15,0-27.2,12.2-27.2,27.2s12.2,27.2,27.2,27.2s27.2-12.2,27.2-27.2S129.7,80.9,114.7,80.9z"/>
			</g>
			<g>
				<path class="st4" d="M114.7,122.9c-8.1,0-14.8-6.6-14.8-14.8s6.6-14.8,14.8-14.8s14.8,6.6,14.8,14.8S122.9,122.9,114.7,122.9z
					 M114.7,98c-5.6,0-10.1,4.5-10.1,10.1c0,5.6,4.5,10.1,10.1,10.1s10.1-4.5,10.1-10.1C124.9,102.5,120.3,98,114.7,98z"/>
			</g>
		</g>
	</g>
</g>
</svg>
