<svg xmlns="http://www.w3.org/2000/svg" xmlns:xlink="http://www.w3.org/1999/xlink" viewBox="0 0 186.94 41.73"><defs><style>.cls-1{fill:none;}.cls-2{clip-path:url(#clip-path);}.cls-3{fill:#fff;}</style><clipPath id="clip-path" transform="translate(-13.35 -18.44)"><rect class="cls-1" x="10.77" y="10.77" width="52" height="52" transform="translate(-15.23 36.77) rotate(-45)"/></clipPath></defs><g id="Layer_2" data-name="Layer 2"><g id="Layer_1-2" data-name="Layer 1"><g class="cls-2"><path class="cls-3" d="M46.72,56.69,44.81,58.6a1.67,1.67,0,0,1-.69.41,1.55,1.55,0,0,1-.8,0,1.69,1.69,0,0,1-.72-.36,1.64,1.64,0,0,1-.46-.66L36.56,43.18,29.45,50l.54,5.6a2.78,2.78,0,0,1-1,2.73L27.73,59.6a1.91,1.91,0,0,1-.72.47,1.87,1.87,0,0,1-.85.08,1.81,1.81,0,0,1-1.35-1l-3.68-6.53-.07-.15h0l-.15-.07-6.56-3.71a1.8,1.8,0,0,1-1-1.34,1.78,1.78,0,0,1,.07-.79,1.83,1.83,0,0,1,.43-.67l1.35-1.35a3.41,3.41,0,0,1,2.73-1l5.51.54L30.34,37,15.52,31.39a1.59,1.59,0,0,1-.66-.45,1.69,1.69,0,0,1-.36-.72,1.55,1.55,0,0,1,0-.8,1.67,1.67,0,0,1,.41-.69l1.93-1.94a2.67,2.67,0,0,1,1-.58,2.51,2.51,0,0,1,1.12-.1L38.86,28l4-4.25c.29-.32,1.12-1.17,1.32-1.37,4-4,7.63-5,9.79-2.89.67.68,1.66,2.21.65,4.83a15.12,15.12,0,0,1-3.54,5c-.19.19-1,1-1.36,1.32l-4.26,4L47.41,54.6a2.65,2.65,0,0,1-.1,1.12,2.42,2.42,0,0,1-.59,1Z" transform="translate(-13.35 -18.44)"/></g><path class="cls-3" d="M72,32.64H65.44V26.78H86.11v5.86H79.55V49.18H72Z" transform="translate(-13.35 -18.44)"/><path class="cls-3" d="M97.67,43.55h-2v5.63H88.07V26.78H98.85a13.29,13.29,0,0,1,5.41,1,8,8,0,0,1,3.55,2.94,8,8,0,0,1,1.25,4.48A8,8,0,0,1,108,39.42a7.63,7.63,0,0,1-3.14,2.85l4.71,6.91h-8.07Zm3-10.25a3.35,3.35,0,0,0-2.3-.69H95.62v5.25h2.75a3.35,3.35,0,0,0,2.3-.69,2.45,2.45,0,0,0,.77-1.94A2.42,2.42,0,0,0,100.67,33.3Z" transform="translate(-13.35 -18.44)"/><path class="cls-3" d="M127.17,45.28h-8.51l-1.51,3.9h-7.68l9.79-22.4h7.43l9.79,22.4h-7.81Zm-2.08-5.44-2.18-5.63-2.17,5.63Z" transform="translate(-13.35 -18.44)"/><path class="cls-3" d="M160.35,26.78l-9.47,22.4h-7.42L134,26.78h8.13l5.35,13.09,5.47-13.09Z" transform="translate(-13.35 -18.44)"/><path class="cls-3" d="M179.71,43.49v5.69H161.09V26.78H179.3v5.7H168.51V35.1H178v5.44h-9.47v3Z" transform="translate(-13.35 -18.44)"/><path class="cls-3" d="M182.63,26.78h7.55V43.33h10.11v5.85H182.63Z" transform="translate(-13.35 -18.44)"/></g></g></svg>