<?xml version="1.0" encoding="utf-8"?>
<!-- Generator: Adobe Illustrator 26.0.1, SVG Export Plug-In . SVG Version: 6.00 Build 0)  -->
<svg version="1.1" id="Layer_1" xmlns="http://www.w3.org/2000/svg" xmlns:xlink="http://www.w3.org/1999/xlink" x="0px" y="0px"
	 viewBox="0 0 659.9 190.6" style="enable-background:new 0 0 659.9 190.6;" xml:space="preserve">
<style type="text/css">
	.st0{fill:#F1841F;}
	.st1{fill:url(#SVGID_1_);}
	.st2{fill:#1CA9E1;}
</style>
<g id="Layer_2_00000074431648332503556050000001042164818093467046_">
	<g id="Layer_2-2">
		<path class="st0" d="M657.9,132.3c-2.1,3-5.4,3.9-8.5,5c-11.5,3.9-23,3.7-34-1.8c-5.9-3-9-8.3-10.3-14.7
			c-2.6-12.8-1.5-25.7-1.7-38.5c-0.1-7.2,0-14.3,0-21.5c0-1.7-0.6-2.4-2.3-2.3c-2.6,0.1-5.3,0-7.9,0c-1.4,0-2.1-0.5-2.1-2
			c0-7.3,0-14.6,0-21.9c0-1.5,0.5-2.1,2-2c2.6,0,5.2-0.1,7.7,0c1.7,0.1,2.2-0.5,2.2-2.2c-0.1-7.2,0-14.5,0-21.7c0-2.7,0.3-3,3-3
			c8.3,0,16.5,0,24.8,0c2.4,0,2.8,0.3,2.8,2.8c0,7.2,0,14.5,0,21.7c0,2.2,0.1,2.3,2.3,2.3h22.1V57c-1.7,1.1-3.8,1.6-5.8,1.5
			c-4.5,0-9,0-13.4,0c-5.1,0-5.1,0-5.1,5.2c0,12.3,0,24.6,0,36.9c-0.1,2,0.1,4.1,0.4,6.1c0.5,2.6,1.7,4.9,4.4,5.8s5.9,0.7,8.8,0.3
			c3.6-0.5,7-1.9,10.7-2.2L657.9,132.3z"/>
		<path class="st0" d="M254.7,46.3c1.4-1.5,2.8-3,4.3-4.5c5.6-5.5,12.1-9.7,20-10.7c11.2-1.5,21.4,0.7,29.8,8.8
			c2.2,2.1,4.1,4.4,5.6,7c0.5,0.9,0.9,1,1.6,0c5.4-8.1,13.2-12.6,22.4-15c8.3-2.2,17.1-1.8,25.1,1.2c10.1,3.7,16.4,11.1,19.4,21.3
			c1.2,3.9,1.8,8,1.8,12.2c-0.1,22.8,0,45.7,0,68.5c0,2.6-0.1,2.8-2.7,2.8h-24.6c-2.6,0-2.9-0.3-2.9-2.9c0-19.6,0-39.2-0.1-58.8
			c0.1-4.3-1.2-8.6-3.7-12.1c-1.7-2.4-4.3-4.1-7.1-4.9c-4.1-1.3-8.6-1.3-12.7,0c-6.5,2.1-9.6,6.8-10.8,14.3
			c-0.7,4.1-0.5,8.2-0.5,12.3c0,16.3,0,32.6,0,48.9c0,3.1,0,3.1-3.2,3.1h-24.2c-2.6,0-2.8-0.1-2.8-2.7c0-19.1,0-38.2,0-57.4
			c0-3.8-0.9-7.6-2.6-11.1c-2.2-4.6-5.7-7.6-10.8-8.2c-6.9-0.9-13.2,0.1-17.8,5.9c-2.5,3.2-3.8,7.1-3.8,11.2
			c-0.1,18.2-0.1,36.3-0.1,54.5v4.7c0,2.9-0.1,3.1-3,3.1h-16.2c-2.7,0-5.4,0-8.1,0c-2.5,0-2.9-0.4-2.9-3c0-8.7,0-17.5,0-26.2V36.3
			c0-3.4,0.2-3.6,3.7-3.6c7.8,0,15.7,0,23.5,0c2.6,0,2.9,0.3,2.9,2.9c0,3.5,0,7,0,10.5L254.7,46.3z"/>
		<path class="st0" d="M467.9,127.1c-2.2,1.7-4,3.1-5.8,4.5c-13.2,9.3-30.3,10.8-44.9,4c-7.1-3.5-12.5-8.9-15.3-16.3
			c-1.1-2.8-1.8-5.7-1.9-8.7c-0.2-5.1,0-10.2,1.7-15c2.2-6.8,7-12.4,13.3-15.8c7.6-4.1,15.9-5.8,24.5-6.2c8.7-0.3,17.5,0.8,25.8,3.4
			c2.3,0.7,2.6,0.4,2.7-1.9c0.2-8.2-5.1-15-13.6-16.9c-7.5-1.7-14.8-1.1-22.2,0.3c-4.6,0.9-9.1,2.1-13.5,3.5
			c-1.1,0.4-2.1,0.4-2.5-1.1c-2.1-6.5-4.2-12.9-6.4-19.3c-0.5-1.3,0-1.8,1.1-2.3c4.5-2.1,9.2-3.7,14-5c9.3-2.4,19-3.4,28.6-2.9
			c10.6,0.5,20.8,2.6,29.4,9.4c6.9,5.4,10.6,12.7,12.6,21.1c1.5,6.1,1.4,12.3,1.4,18.5c0,18.1,0,36.2,0,54.3c0,3.1,0,3.1-3.1,3.1
			h-22.8c-2.7,0-2.9-0.2-2.9-2.9C467.9,132.4,467.9,130,467.9,127.1z M449.8,91.8c-2.8-0.2-5.7,0-8.4,0.8c-6.5,1.8-12.6,5-11.9,14.4
			c0.3,4.7,2.6,8.4,7.2,10.1c6.4,2.3,13.3,2.2,19.6-0.3c7.2-2.7,11.3-7.9,12.3-15.5c0.5-3.9-0.8-6.2-4.4-7.2
			C459.5,92.5,454.7,91.7,449.8,91.8z"/>
		<path class="st0" d="M80.8,107.4c0-7.5-0.1-14.9,0-22.4c0.2-12.5-8.4-23.7-20-26.5c-10.2-2.5-19,0-26.7,7
			c-0.7,0.6-1.3,1.3-1.9,1.9s-1,1.4-1.9,1s-0.5-1.2-0.6-1.9c-0.1-0.8-0.1-1.7,0-2.5c0.7-7.9-1-15.5-3.8-22.8
			c-0.5-0.8-0.2-1.8,0.6-2.3c0.1-0.1,0.2-0.1,0.3-0.1c6.4-3.9,13.5-6.3,20.9-7.1C62,30,74.8,34,86.1,42.6
			c9.7,7.3,16.5,17.7,19.2,29.4c0.9,3.5,1.3,7.1,1.4,10.6c0.2,7.6,0.6,15.3,0.6,22.9c0,8.9-0.2,17.9-0.7,26.9
			c-0.6,11-3.8,21.2-10.7,30c-6.5,8.3-15,13.9-24.9,17.6c-7.3,2.8-15.1,3.9-22.9,3.1c-7.4-0.8-14.5-3.3-20.8-7.2
			c-3.7-2.1-7.2-4.7-10.3-7.7c-1-1-1-1.6,0-2.6c5.3-5,10.5-10,15.6-15c1.1-1.1,1.9-1,3.1-0.1c5.4,4.2,11.4,6.8,18.3,6.6
			c10-0.2,21.6-6.8,25.4-17.9c0.9-2.5,1.4-5.1,1.4-7.7C80.8,123.5,80.8,115.5,80.8,107.4L80.8,107.4z"/>
		<path class="st0" d="M164,139.8c-10.3,0.1-20.5-2-29.9-6.2c-5.4-2.4-10.4-5.6-15.6-8.5c-1.1-0.6-1.2-1.3-0.5-2.3
			c3.6-5.6,7.2-11.1,10.8-16.7c0.8-1.3,1.6-1.3,2.8-0.6c4.6,2.6,9.3,5,14.1,7c5.4,2.1,11,2.7,16.6,3.4c3,0.4,5.9,0.7,8.8-0.6
			c2.5-1.1,4.2-2.6,4.6-5.5c0.5-2.9-1.1-5.8-3.8-7.1c-4.5-2.4-9.3-3.7-14.1-5.2c-6.9-2.1-13.9-4.2-20.2-7.7
			c-8.3-4.7-13.3-11.4-14.6-21.1c-1.1-7.5,0.5-15.2,4.5-21.8c4.2-6.9,10.6-11.2,18.3-13.6c14.4-4.4,28.4-2.8,42,3.1
			c3.8,1.6,7.5,3.5,11,5.7c1.8,1.2,1.8,1.5,0.8,3.3c-3.1,5.5-6.1,10.9-9.1,16.5c-0.7,1.4-1.4,1.6-2.8,0.9c-4.6-2.2-9.1-4.6-14.1-5.8
			c-5.2-1.2-10.3-2.5-15.7-2.5c-2.4,0-4.6,0.9-6.3,2.6c-2.3,2.1-2.5,5.6-0.4,7.9c0.3,0.4,0.7,0.7,1.1,1c3.5,2.6,7.6,4,11.6,5.6
			c7.1,2.8,14.4,5,21.4,8.3c5.9,2.8,11,6.6,14.4,12.3c3.1,5.3,4,11.1,3.4,17.3c-0.6,7.5-3.9,14.6-9.2,19.9c-4.2,4-9.3,6.8-14.9,8.2
			C174.1,138.9,169.1,139.7,164,139.8z"/>
		<path class="st0" d="M512.8,85.2V36.1c0-3.4,0-3.5,3.5-3.5c7.8,0,15.7,0,23.5,0c2.7,0,2.8,0.3,2.8,2.8c-0.1,4.8,0,9.6,0,14.3
			c0,0.5-0.1,1.1,0.4,1.3c0.7,0.2,0.8-0.6,1-1c2.1-4.2,4.9-7.9,8.2-11.2c5.1-5,12-7.9,19.2-8.1c4.3-0.1,4.2-0.1,4.3,4.2
			c0,8.4,0,16.7,0.1,25.1c0,1.9-1,2-2.4,2c-6.3,0.2-12.3,1.5-17.7,5.1c-6.4,4.2-10,10.2-11.4,17.7c-1,5.8-1.5,11.7-1.4,17.7
			c0,10.7,0,21.4,0,32.1c0,2.9-0.2,3.1-3.2,3.1h-24c-2.8,0-2.9-0.1-2.9-3L512.8,85.2z"/>
		
			<linearGradient id="SVGID_1_" gradientUnits="userSpaceOnUse" x1="2.1278" y1="153.1343" x2="89.5578" y2="-4.566582e-02" gradientTransform="matrix(1 0 0 -1 0 191.2756)">
			<stop  offset="0.14" style="stop-color:#1CA9E1"/>
			<stop  offset="0.25" style="stop-color:#1B91C7"/>
			<stop  offset="0.48" style="stop-color:#1A5283"/>
			<stop  offset="0.57" style="stop-color:#193A69"/>
		</linearGradient>
		<path class="st1" d="M77.2,117.9c0,3.9,0,7.9,0,11.8c0.2,2.9-1.5,5.6-4.2,6.7c-4.1,1.8-8.4,2.9-12.8,3.4
			c-6.5,0.9-13.1,0.4-19.4-1.3c-10.1-2.6-19.3-8.1-26.4-15.8c-5.9-6.3-10.1-14-12.3-22.4C0.7,94.7,0,88.9,0.1,83.1
			c-0.2-16,0-32,0-48.1c0-3,0.5-3.4,3.5-3.1c8.4,1,14.4,5.4,18.6,12.5c2.2,4,3.4,8.4,3.4,13c0.4,9.4,0,18.8,0.4,28.1
			c0.3,7.7,2,15.1,8.1,20.6c3.5,3.2,7.7,5.4,12.2,6.5c6.2,1.6,12.4,1.6,18.4-1.2c3.9-1.8,7.3-4.4,9.9-7.8c0.4-0.5,0.7-1.3,1.5-1.1
			s1,1.1,1.1,1.9c0.1,3,0.1,6,0.1,9C77.2,115,77.2,116.5,77.2,117.9L77.2,117.9z"/>
		<circle class="st2" cx="12.9" cy="12.9" r="12.5"/>
	</g>
</g>
</svg>
