<?xml version="1.0" encoding="UTF-8"?>
<!DOCTYPE svg PUBLIC "-//W3C//DTD SVG 1.1//EN" "http://www.w3.org/Graphics/SVG/1.1/DTD/svg11.dtd">
<!-- Creator: CorelDRAW -->
<svg xmlns="http://www.w3.org/2000/svg" xml:space="preserve" width="91.4398mm" height="91.4398mm" version="1.1" style="shape-rendering:geometricPrecision; text-rendering:geometricPrecision; image-rendering:optimizeQuality; fill-rule:evenodd; clip-rule:evenodd"
viewBox="0 0 9143.98 9143.98"
 xmlns:xlink="http://www.w3.org/1999/xlink"
 xmlns:xodm="http://www.corel.com/coreldraw/odm/2003">
 <defs>
  <style type="text/css">
   <![CDATA[
    .str0 {stroke:#E3E3E3;stroke-width:500;stroke-miterlimit:22.9256}
    .fil0 {fill:none}
    .fil2 {fill:#F08000}
    .fil1 {fill:white}
   ]]>
  </style>
    <clipPath id="id0">
     <path d="M4588.65 1490.86c1644.22,0 2977.12,1332.9 2977.12,2977.12 0,1644.22 -1332.9,2977.12 -2977.12,2977.12 -1644.22,0 -2977.12,-1332.9 -2977.12,-2977.12 0,-1644.22 1332.9,-2977.12 2977.12,-2977.12z"/>
    </clipPath>
 </defs>
 <g id="Layer_x0020_1">
  <metadata id="CorelCorpID_0Corel-Layer"/>
  <g id="_2021306518096">
   <circle class="fil0 str0" cx="4588.65" cy="4437.64" r="3593.27"/>
   <path class="fil1" d="M4588.65 1490.86c1644.22,0 2977.12,1332.9 2977.12,2977.12 0,1644.22 -1332.9,2977.12 -2977.12,2977.12 -1644.22,0 -2977.12,-1332.9 -2977.12,-2977.12 0,-1644.22 1332.9,-2977.12 2977.12,-2977.12z"/>
   <g style="clip-path:url(#id0)">
    <g>
     <image x="1628.97" y="1560.25" width="6874.97" height="7215.14" xlink:href="Nicola Hall_Images\Nicola Hall_ImgID1.png"/>
    </g>
   </g>
   <path class="fil0" d="M4588.65 1490.86c1644.22,0 2977.12,1332.9 2977.12,2977.12 0,1644.22 -1332.9,2977.12 -2977.12,2977.12 -1644.22,0 -2977.12,-1332.9 -2977.12,-2977.12 0,-1644.22 1332.9,-2977.12 2977.12,-2977.12z"/>
   <path class="fil2" d="M7823.12 6577.73c53.93,-84.74 69.33,-146.38 200.3,-146.38 231.13,7.71 469.95,0 701.08,0 -15.41,-46.22 -338.98,-300.46 -392.91,-338.98 -192.61,-130.97 -523.88,-338.98 -755,-192.6 -23.12,23.11 -277.35,400.62 -323.58,462.25 -169.49,231.12 -377.5,462.24 -593.21,647.14 -500.77,500.77 -1417.56,731.89 -2095.52,724.19 -793.52,0 -1510,-238.83 -2087.81,-731.89 -238.83,-200.31 -254.23,-231.12 -469.95,-469.95 -138.67,-154.08 -246.53,-392.91 -377.5,-562.4 -254.23,-323.57 -808.93,100.15 -1024.64,285.05 -30.82,23.11 -169.49,146.38 -184.9,177.19 231.12,0 469.95,0 701.07,0 123.27,0 184.9,46.23 231.12,123.27 1602.46,2318.93 4876.7,2326.64 6471.45,23.11z"/>
  </g>
 </g>
</svg>
