<?xml version="1.0" encoding="utf-8"?>
<!-- Generator: Adobe Illustrator 26.0.1, SVG Export Plug-In . SVG Version: 6.00 Build 0)  -->
<svg version="1.1" id="Layer_1" xmlns="http://www.w3.org/2000/svg" xmlns:xlink="http://www.w3.org/1999/xlink" x="0px" y="0px"
	 viewBox="0 0 820.7 182.3" style="enable-background:new 0 0 820.7 182.3;" xml:space="preserve">
<style type="text/css">
	.st0{fill:#FFFFFF;}
	.st1{fill:#C99700;}
	.st2{clip-path:url(#SVGID_00000142134139629358002910000007872848789905340561_);}
	.st3{fill:#A67C00;}
	.st4{clip-path:url(#SVGID_00000173120477640509655710000011631055125782617230_);}
	.st5{fill:#856300;}
</style>
<g>
	<path class="st0" d="M207.5,85c-0.4,0-0.5,0.1-0.7,0.6l-4,10.1c-0.7,1.8-1.1,3.6-1.1,4.5c0,1.3,0.7,2.3,3,2.3h1.1
		c0.9,0,1.1,0.1,1.1,0.6c0,0.6-0.4,0.7-1.3,0.7c-2.4,0-5.5-0.2-7.8-0.2c-0.8,0-4.9,0.2-8.7,0.2c-1,0-1.4-0.1-1.4-0.7
		c0-0.4,0.3-0.6,0.9-0.6c0.7,0,1.7-0.1,2.3-0.1c3.4-0.4,4.8-3,6.3-6.6l18.5-45.8c0.9-2.1,1.3-3,2.1-3c0.7,0,1.1,0.7,1.8,2.4
		c1.8,4.1,13.6,33.6,18.3,44.8c2.8,6.7,4.9,7.7,6.5,8.1c1.1,0.2,2.2,0.3,3.1,0.3c0.6,0,1,0.1,1,0.6c0,0.6-0.7,0.7-3.4,0.7
		c-2.7,0-8.1,0-14-0.1c-1.3-0.1-2.2-0.1-2.2-0.6c0-0.4,0.3-0.6,1-0.7c0.5-0.1,1-0.8,0.7-1.7l-5.9-15.2c-0.1-0.4-0.4-0.5-0.7-0.5
		H207.5z M222.5,81.3c0.4,0,0.4-0.2,0.4-0.4l-6.7-18.2c-0.1-0.3-0.1-0.7-0.4-0.7c-0.2,0-0.4,0.4-0.4,0.7l-6.8,18.1
		c-0.1,0.3,0,0.5,0.3,0.5H222.5z"/>
	<path class="st0" d="M263.5,85.8c0,6.1,0.1,10.5,0.4,13.2c0.2,1.8,0.7,3,2.6,3.3c0.9,0.1,2.3,0.2,3.2,0.2c0.8,0,1.1,0.4,1.1,0.7
		c0,0.4-0.4,0.7-1.4,0.7c-4.1,0-8.7-0.2-10.4-0.2c-1.7,0-5.8,0.2-8.3,0.2c-0.9,0-1.3-0.1-1.3-0.7c0-0.3,0.2-0.7,1-0.7
		c1,0,1.7-0.1,2.3-0.2c1.3-0.3,1.7-1.5,1.9-3.3c0.3-2.7,0.3-7.3,0.3-13.4V74.5c0-9.5,0-11.3-0.1-13.3c-0.1-2.1-0.7-2.9-2.8-3.4
		c-0.5-0.1-1.6-0.2-2.6-0.2c-0.6,0-1.1-0.2-1.1-0.7c0-0.4,0.5-0.6,1.6-0.6c3.3,0,7.5,0.1,9.3,0.1c2.5,0,16.9,0.1,18.5,0
		c1.2-0.1,2-0.1,2.7-0.3c0.4-0.1,0.7-0.4,1-0.4c0.2,0,0.4,0.3,0.4,0.6c0,0.4-0.3,1.2-0.5,2.8c-0.1,0.7-0.2,4.4-0.3,5.1
		c-0.1,0.5-0.2,1.3-0.7,1.3c-0.4,0-0.8-0.3-0.8-1c0-0.5,0.1-1.5-0.4-2.4c-0.4-0.9-1.7-1.8-4.1-1.9l-10.8-0.2c-0.4,0-0.6,0.1-0.6,0.9
		v15.2c0,0.4,0.1,0.6,0.4,0.6l9.1-0.1c1.1,0,2,0,3-0.1c1.2-0.1,2.1-0.3,2.7-1.1c0.4-0.4,0.5-0.7,0.9-0.7c0.2,0,0.4,0.2,0.4,0.6
		c0,0.4-0.3,2.1-0.5,4.1c-0.1,1.3-0.2,4.1-0.2,4.6c0,0.5-0.1,1.4-0.7,1.4c-0.4,0-0.6-0.4-0.6-0.9c0-0.4-0.1-1.2-0.4-1.9
		c-0.3-0.9-1.1-2.1-3.1-2.3c-1.6-0.1-9.3-0.2-10.4-0.2c-0.3,0-0.4,0.1-0.4,0.5V85.8z"/>
	<path class="st0" d="M295.2,74.5c0-9.5,0-11.3-0.1-13.3c-0.1-2.1-0.7-2.8-2.8-3.4c-0.5-0.1-1.6-0.2-2.6-0.2c-0.7,0-1.1-0.2-1.1-0.7
		c0-0.4,0.5-0.6,1.5-0.6c3.4,0,7.5,0.1,8.9,0.1c2.2,0,8.1-0.1,10.1-0.1c4.1,0,8.9,0.4,12.3,2.7c1.8,1.3,4.6,4.4,4.6,8.6
		c0,4.7-2.7,8.8-9,13.9c5.8,7.1,10.3,12.8,14.3,16.7c3.6,3.6,5.9,3.9,6.9,4.1c0.7,0.1,1,0.1,1.6,0.1c0.5,0,0.8,0.4,0.8,0.7
		c0,0.5-0.4,0.7-1.3,0.7h-6.2c-3.6,0-5.4-0.4-7.1-1.3c-2.8-1.4-5.2-4.4-8.9-9.2c-2.6-3.4-5.3-7.6-6.1-8.6c-0.4-0.4-0.7-0.4-1.2-0.4
		l-5.8-0.1c-0.3,0-0.5,0.1-0.5,0.5v0.9c0,5.8,0.1,10.7,0.4,13.4c0.2,1.8,0.5,3,2.5,3.3c1,0.1,2.4,0.2,3.2,0.2c0.5,0,0.8,0.4,0.8,0.7
		c0,0.4-0.5,0.7-1.3,0.7c-3.8,0-9.2-0.2-10.1-0.2c-1.3,0-5.4,0.2-8,0.2c-0.8,0-1.3-0.2-1.3-0.7c0-0.3,0.2-0.7,1-0.7
		c1,0,1.7-0.1,2.3-0.2c1.3-0.3,1.7-1.5,1.9-3.3c0.3-2.7,0.3-7.6,0.3-13.4V74.5z M303.4,79.4c0,0.7,0.1,0.9,0.6,1.1
		c1.4,0.4,3.3,0.6,5,0.6c2.6,0,3.5-0.2,4.6-1c2-1.4,4.2-4.1,4.2-9.3c0-8.9-6.1-11.2-9.9-11.2c-1.6,0-3.2,0.1-3.8,0.2
		c-0.4,0.1-0.6,0.4-0.6,0.9V79.4z"/>
	<path class="st0" d="M345.9,74.5c0-9.5,0-11.3-0.1-13.3c-0.1-2.1-0.8-2.9-2.2-3.3c-0.7-0.2-1.6-0.3-2.4-0.3c-0.7,0-1-0.1-1-0.7
		c0-0.4,0.5-0.5,1.6-0.5c2.4,0,6.9,0.1,8.7,0.1c1.6,0,5.8-0.1,8.3-0.1c0.8,0,1.3,0.1,1.3,0.5c0,0.6-0.4,0.7-1,0.7s-1.2,0.1-1.9,0.2
		c-1.8,0.3-2.3,1.2-2.4,3.4c-0.1,2-0.1,3.8-0.1,13.3v11.1c0,6.1,0,11.1,0.3,13.7c0.2,1.7,0.7,2.7,2.6,3c0.9,0.1,2.4,0.2,3.3,0.2
		c0.7,0,1,0.4,1,0.7c0,0.4-0.5,0.7-1.3,0.7c-4.3,0-8.7-0.2-10.5-0.2c-1.5,0-5.9,0.2-8.5,0.2c-0.8,0-1.3-0.2-1.3-0.7
		c0-0.3,0.2-0.7,1-0.7c1,0,1.7-0.1,2.3-0.2c1.3-0.3,1.7-1.2,1.9-3c0.3-2.6,0.3-7.6,0.3-13.7V74.5z"/>
	<path class="st0" d="M376.2,97.9c-6.4-5.4-8.1-12.5-8.1-18.5c0-4.3,1.4-11.7,7.6-17.2c4.7-4.1,10.9-6.6,20.6-6.6
		c4.1,0,6.5,0.3,9.5,0.7c2.4,0.4,4.6,0.8,6.5,1c0.7,0.1,1,0.4,1,0.7c0,0.5-0.1,1.3-0.3,3.5c-0.1,2.1-0.1,5.5-0.2,6.8
		c-0.1,0.9-0.3,1.6-0.9,1.6c-0.5,0-0.7-0.5-0.7-1.3c-0.1-2-0.9-4.2-2.5-5.8c-2.2-2.1-6.6-3.7-12.6-3.7c-5.7,0-9.3,1-12.3,3.5
		c-4.8,4.1-6,10.2-6,16.3c0,14.9,11.5,22,20.2,22c5.8,0,8.9-0.4,11.5-3.3c1.1-1.3,2-3,2.2-4.2c0.1-1,0.3-1.3,0.8-1.3
		c0.4,0,0.7,0.6,0.7,1.1c0,0.7-0.7,6.2-1.4,8.3c-0.3,1.1-0.6,1.4-1.7,1.8c-2.6,1-7.5,1.4-11.7,1.4
		C389.7,104.7,382.1,102.8,376.2,97.9z"/>
	<path class="st0" d="M430.1,88c-0.4,0-0.4,0.1-0.6,0.4l-3.5,8.5c-0.7,1.6-1,3.1-1,3.8c0,1.1,0.6,1.8,2.6,1.8h1c0.8,0,1,0.3,1,0.7
		c0,0.5-0.4,0.7-1,0.7c-2.1,0-5.2-0.2-7.2-0.2c-0.7,0-4.1,0.2-7.5,0.2c-0.8,0-1.2-0.1-1.2-0.7c0-0.4,0.2-0.7,0.7-0.7
		c0.6,0,1.3-0.1,1.9-0.1c3-0.4,4.1-2.4,5.4-5.5l17-39.2c0.7-1.8,1.3-2.5,1.9-2.5c1,0,1.3,0.6,1.9,2c1.6,3.5,12.4,28.9,16.5,38.4
		c2.5,5.7,4.4,6.5,5.5,6.7c1,0.1,1.7,0.2,2.4,0.2c0.6,0,0.9,0.2,0.9,0.7c0,0.5-0.4,0.7-2.8,0.7c-2.3,0-7,0-12.5-0.1
		c-1.2-0.1-1.9-0.1-1.9-0.5c0-0.4,0.1-0.6,0.8-0.7c0.4-0.1,0.9-0.7,0.6-1.4l-5-12.7c-0.1-0.4-0.4-0.4-0.7-0.4H430.1z M444,84.5
		c0.3,0,0.4-0.1,0.3-0.4l-6.1-15.7c-0.1-0.2-0.1-0.6-0.3-0.6c-0.2,0-0.3,0.4-0.4,0.6l-6.3,15.7c-0.1,0.3,0,0.4,0.2,0.4H444z"/>
	<path class="st0" d="M478,95.3c0.1,4.9,1,6.4,2.2,6.8c1.1,0.4,2.4,0.4,3.4,0.4c0.7,0,1.1,0.3,1.1,0.7c0,0.5-0.6,0.7-1.5,0.7
		c-4.2,0-7.2-0.2-8.4-0.2c-0.6,0-3.7,0.2-7,0.2c-0.9,0-1.5-0.1-1.5-0.7c0-0.4,0.4-0.7,1-0.7c0.9,0,2.1-0.1,3-0.3
		c1.7-0.4,1.9-2.1,2-7.6l0.6-37.2c0-1.3,0.4-2.1,1.1-2.1c0.8,0,1.7,1,2.8,2.1c0.8,0.8,10.6,10.8,20,20c4.4,4.4,13.1,13.2,14,14.1
		h0.3l-0.7-27.9c-0.1-3.8-0.7-4.9-2.2-5.5c-1-0.4-2.5-0.4-3.4-0.4c-0.8,0-1-0.3-1-0.7c0-0.5,0.7-0.6,1.6-0.6c3.4,0,6.9,0.1,8.3,0.1
		c0.7,0,3.2-0.1,6.4-0.1c0.9,0,1.5,0.1,1.5,0.6c0,0.4-0.4,0.7-1.1,0.7c-0.7,0-1.2,0-2,0.2c-1.8,0.5-2.3,1.6-2.4,5.2l-0.7,39.6
		c0,1.4-0.5,2-1,2c-1.1,0-2-0.7-2.7-1.3c-4.1-3.8-12.2-11.5-19-18.1c-7.1-6.8-14-14.4-15.2-15.5h-0.2L478,95.3z"/>
	<path class="st0" d="M569.1,82.4c0,7.1,0,12.6,0.4,15.7c0.2,2.1,0.7,3.8,2.9,4.1c1,0.1,2.7,0.3,3.7,0.3c1,0,1.3,0.2,1.3,0.6
		c0,0.5-0.5,0.7-1.6,0.7c-4.7,0-9.3-0.2-11.2-0.2s-6.6,0.2-9.4,0.2c-1,0-1.6-0.1-1.6-0.7c0-0.4,0.3-0.6,1.1-0.6c1.1,0,2-0.1,2.7-0.3
		c1.5-0.3,1.8-1.9,2.1-4.1c0.4-3.1,0.4-8.6,0.4-15.7v-13c0-11.2,0-13.3-0.1-15.7c-0.1-2.5-0.7-3.7-3.2-4.2c-0.6-0.1-1.8-0.2-2.9-0.2
		c-0.7,0-1.3-0.1-1.3-0.6c0-0.6,0.6-0.7,1.7-0.7c1.9,0,4.1,0.1,6,0.1c1.9,0.1,3.6,0.1,4.7,0.1c2.8,0,17.8,0,19.5-0.1
		c1.4-0.1,2.3-0.1,3-0.3c0.4-0.1,0.8-0.4,1.2-0.4c0.3,0,0.5,0.3,0.5,0.7c0,0.5-0.4,1.4-0.6,3.3c-0.1,0.7-0.2,5.1-0.4,6
		c-0.1,0.6-0.2,1-0.7,1c-0.5,0-0.7-0.4-0.7-1.2c0-0.6,0-1.8-0.4-2.8c-0.5-1-2.1-2.1-4.9-2.2L569.7,52c-0.4,0-0.7,0.2-0.7,1v18.5
		c0,0.4,0.1,0.7,0.5,0.7l9.5-0.1c1.3,0,2.3,0,3.3-0.1c1.4-0.1,2.4-0.4,3.2-1.3c0.4-0.4,0.5-0.7,1-0.7c0.3,0,0.4,0.2,0.4,0.7
		s-0.4,2.3-0.6,4.6c-0.1,1.5-0.3,4.9-0.3,5.4c0,0.7,0,1.4-0.7,1.4c-0.4,0-0.6-0.5-0.6-1s-0.1-1.4-0.4-2.3c-0.4-1-1.5-2.4-3.8-2.7
		c-1.8-0.2-9.7-0.2-10.9-0.2c-0.4,0-0.5,0.1-0.5,0.7V82.4z"/>
	<path class="st0" d="M602.6,88c-0.4,0-0.4,0.1-0.6,0.4l-3.5,8.5c-0.7,1.6-1,3.1-1,3.8c0,1.1,0.6,1.8,2.6,1.8h1c0.8,0,1,0.3,1,0.7
		c0,0.5-0.4,0.7-1,0.7c-2.1,0-5.2-0.2-7.2-0.2c-0.7,0-4.1,0.2-7.5,0.2c-0.8,0-1.2-0.1-1.2-0.7c0-0.4,0.2-0.7,0.7-0.7
		c0.6,0,1.3-0.1,1.9-0.1c3-0.4,4.1-2.4,5.4-5.5l17-39.2c0.7-1.8,1.3-2.5,1.9-2.5c1,0,1.3,0.6,1.9,2c1.6,3.5,12.4,28.9,16.6,38.4
		c2.5,5.7,4.4,6.5,5.5,6.7c1,0.1,1.7,0.2,2.4,0.2c0.6,0,0.9,0.2,0.9,0.7c0,0.5-0.4,0.7-2.8,0.7c-2.3,0-7,0-12.5-0.1
		c-1.2-0.1-1.9-0.1-1.9-0.5c0-0.4,0.1-0.6,0.8-0.7c0.4-0.1,0.9-0.7,0.6-1.4l-5-12.7c-0.1-0.4-0.4-0.4-0.7-0.4H602.6z M616.5,84.5
		c0.3,0,0.4-0.1,0.3-0.4l-6.1-15.7c-0.1-0.2-0.1-0.6-0.3-0.6c-0.2,0-0.3,0.4-0.4,0.6l-6.3,15.7c-0.1,0.3,0,0.4,0.2,0.4H616.5z"/>
	<path class="st0" d="M650.4,56.9c0.1-1,0.7-1.6,1.3-1.6c0.7,0,1.1,0.3,2,2L671.1,92l17.4-35.2c0.5-1,1.1-1.6,1.7-1.6
		c0.5,0,1.3,0.7,1.5,2l5.9,38.6c0.6,3.9,1.2,5.6,3.2,6.2c1.8,0.5,2.9,0.6,3.7,0.6c0.6,0,1,0.2,1,0.6c0,0.5-0.7,0.7-1.7,0.7
		c-1.6,0-10.9-0.2-13.4-0.4c-1.6-0.1-1.9-0.4-1.9-0.7c0-0.3,0.3-0.5,0.7-0.7c0.4-0.1,0.5-0.9,0.3-2.7l-3.6-27.1h-0.2l-14,27.8
		c-1.5,3-1.8,3.5-2.6,3.5c-0.8,0-1.6-1.3-2.6-3.2c-1.6-2.9-6.7-12.5-7.5-14.3c-0.5-1.2-4.4-8.8-6.5-13.2h-0.2l-3.1,24.2
		c-0.1,1.1-0.2,1.9-0.2,3c0,1.2,0.9,1.6,2,1.8c1.1,0.2,1.7,0.3,2.3,0.3c0.6,0,1,0.3,1,0.6c0,0.6-0.6,0.7-1.6,0.7
		c-2.7,0-5.7-0.2-6.9-0.2c-1.3,0-4.4,0.2-6.4,0.2c-0.7,0-1.2-0.1-1.2-0.7c0-0.3,0.4-0.6,1-0.6c0.5,0,1,0,2-0.1
		c1.8-0.2,2.4-2.7,2.7-4.8L650.4,56.9z"/>
	<path class="st0" d="M716.2,74.5c0-9.5,0-11.3-0.1-13.3c-0.1-2.1-0.8-2.9-2.2-3.3c-0.7-0.2-1.6-0.3-2.4-0.3c-0.7,0-1-0.1-1-0.7
		c0-0.4,0.5-0.5,1.6-0.5c2.4,0,6.9,0.1,8.7,0.1c1.6,0,5.8-0.1,8.3-0.1c0.8,0,1.3,0.1,1.3,0.5c0,0.6-0.4,0.7-1,0.7
		c-0.7,0-1.2,0.1-1.9,0.2c-1.8,0.3-2.3,1.2-2.4,3.4c-0.1,2-0.1,3.8-0.1,13.3v11.1c0,6.1,0,11.1,0.3,13.7c0.2,1.7,0.7,2.7,2.6,3
		c0.9,0.1,2.4,0.2,3.3,0.2c0.7,0,1,0.4,1,0.7c0,0.4-0.5,0.7-1.3,0.7c-4.3,0-8.7-0.2-10.5-0.2c-1.5,0-5.9,0.2-8.5,0.2
		c-0.8,0-1.3-0.2-1.3-0.7c0-0.3,0.2-0.7,1-0.7c1,0,1.7-0.1,2.3-0.2c1.3-0.3,1.7-1.2,1.9-3c0.3-2.6,0.3-7.6,0.3-13.7V74.5z"/>
	<path class="st0" d="M754.9,85.6c0,8.1,0,12,1.4,13.2c1.1,1,3.6,1.3,8.6,1.3c3.5,0,6-0.1,7.6-1.8c0.8-0.8,1.5-2.6,1.6-3.8
		c0.1-0.6,0.2-1,0.7-1c0.4,0,0.6,0.7,0.6,1.4c0,0.7-0.4,5.4-1,7.2c-0.4,1.4-0.7,1.7-4.1,1.7c-4.7,0-8.4-0.1-11.7-0.2
		c-3.3-0.1-6-0.1-8.6-0.1c-0.7,0-2.1,0.1-3.7,0.1c-1.6,0.1-3.2,0.1-4.5,0.1c-0.8,0-1.3-0.2-1.3-0.7c0-0.3,0.2-0.7,1-0.7
		c1,0,1.7-0.1,2.3-0.2c1.3-0.3,1.7-1.5,1.9-3.3c0.3-2.7,0.3-7.6,0.3-13.4V74.5c0-9.5,0-11.3-0.1-13.3c-0.1-2.1-0.7-2.8-2.8-3.4
		c-0.5-0.1-1.3-0.2-2.1-0.2c-0.7,0-1.1-0.2-1.1-0.7c0-0.4,0.4-0.6,1.4-0.6c3,0,7.2,0.1,8.9,0.1c1.6,0,6.9-0.1,9.4-0.1
		c1,0,1.4,0.1,1.4,0.6c0,0.4-0.4,0.7-1.2,0.7c-0.7,0-1.8,0.1-2.5,0.2c-1.8,0.3-2.3,1.2-2.4,3.4c-0.1,2-0.1,3.8-0.1,13.3V85.6z"/>
	<path class="st0" d="M791.1,87.5c0-3.4-0.6-4.7-1.5-6.6c-0.4-1-9.3-14.8-11.6-18.1c-1.6-2.3-3-3.8-4.2-4.4
		c-0.8-0.4-1.9-0.8-2.7-0.8c-0.5,0-1-0.2-1-0.7c0-0.4,0.4-0.6,1.3-0.6c1.1,0,6,0.1,8.1,0.1c1.4,0,4.4-0.1,7.4-0.1c0.6,0,1,0.1,1,0.6
		c0,0.5-0.4,0.5-1.5,0.8c-0.5,0.1-0.9,0.4-0.9,1c0,0.5,0.3,1.3,0.8,2.1c1.2,1.9,9.7,16.6,10.8,18.4c0.8-1.5,8.7-14.9,9.7-16.8
		c0.7-1.4,1-2.5,1-3.3c0-0.6-0.3-1.2-1.4-1.4c-0.6-0.1-1.2-0.2-1.2-0.7c0-0.4,0.4-0.6,1.1-0.6c2.1,0,4.4,0.1,6.4,0.1
		c1.4,0,5.7-0.1,6.9-0.1c0.7,0,1.2,0.1,1.2,0.5c0,0.4-0.5,0.7-1.3,0.7c-0.7,0-1.8,0.3-2.8,0.7c-1.4,0.7-2,1.3-3.4,3
		c-2.1,2.5-11.5,17.4-12.6,20.1c-1,2.3-0.8,4.2-0.8,6.3v5c0,1,0,3.6,0.1,6.3c0.1,1.8,0.7,3,2.7,3.3c1,0.1,2.4,0.2,3.3,0.2
		c0.7,0,1.1,0.4,1.1,0.7c0,0.4-0.5,0.7-1.4,0.7c-4.1,0-8.4-0.2-10.2-0.2c-1.6,0-6,0.2-8.4,0.2c-0.9,0-1.4-0.1-1.4-0.7
		c0-0.3,0.3-0.7,1-0.7c0.9,0,1.7-0.1,2.3-0.2c1.3-0.3,1.8-1.5,2-3.3c0.2-2.7,0.2-5.2,0.2-6.3V87.5z"/>
</g>
<g>
	<g>
		<g>
			<path class="st1" d="M384.6,133.6l-7.2,0.2c-2.8,0.1-4,0.3-4.7,1.4c-0.5,0.7-0.7,1.3-0.8,1.7c-0.1,0.4-0.2,0.6-0.5,0.6
				c-0.3,0-0.4-0.2-0.4-0.8c0-0.8,0.9-5.2,1-5.6c0.1-0.6,0.3-0.9,0.6-0.9c0.4,0,0.9,0.5,2.1,0.6c1.4,0.1,3.3,0.2,4.9,0.2h19.2
				c1.6,0,2.6-0.1,3.3-0.2c0.7-0.1,1.1-0.2,1.3-0.2c0.3,0,0.4,0.3,0.4,1c0,1-0.1,4.4-0.1,5.6c0,0.5-0.1,0.8-0.4,0.8
				c-0.4,0-0.5-0.2-0.5-1l0-0.5c-0.1-1.3-1.4-2.6-5.7-2.7l-6.1-0.1v19.9c0,4.5,0,8.3,0.2,10.4c0.1,1.4,0.4,2.4,1.9,2.6
				c0.7,0.1,1.7,0.2,2.5,0.2c0.5,0,0.8,0.1,0.8,0.4c0,0.3-0.4,0.5-0.9,0.5c-3.2,0-6.3-0.1-7.6-0.1c-1.1,0-4.2,0.1-6.1,0.1
				c-0.6,0-1-0.1-1-0.5c0-0.2,0.2-0.4,0.8-0.4c0.7,0,1.3-0.1,1.7-0.2c1-0.2,1.3-1.3,1.4-2.7c0.2-2,0.2-5.9,0.2-10.3V133.6z"/>
			<path class="st1" d="M427.2,145c0-7.4,0-8.7-0.1-10.3c-0.1-1.6-0.5-2.4-2.1-2.8c-0.4-0.1-1.2-0.1-1.9-0.1c-0.5,0-0.8-0.1-0.8-0.4
				s0.3-0.4,1.1-0.4c2.6,0,5.6,0.1,6.6,0.1c1.6,0,5.3-0.1,6.8-0.1c3.1,0,6.3,0.3,8.9,2.1c1.4,0.9,3.3,3.4,3.3,6.6
				c0,3.6-1.5,6.9-6.4,10.9c4.3,5.4,7.7,9.8,10.5,12.8c2.7,2.8,4.7,3.2,5.4,3.3c0.5,0.1,1,0.1,1.4,0.1c0.4,0,0.6,0.1,0.6,0.4
				c0,0.4-0.3,0.5-0.9,0.5H455c-2.7,0-3.9-0.2-5.2-0.9c-2.1-1.1-3.9-3.4-6.6-7.1c-1.9-2.7-4.2-6-4.8-6.7c-0.2-0.3-0.5-0.3-0.9-0.3
				l-4.2-0.1c-0.2,0-0.4,0.1-0.4,0.4v0.7c0,4.5,0,8.3,0.2,10.4c0.1,1.4,0.4,2.5,1.9,2.7c0.7,0.1,1.8,0.2,2.4,0.2
				c0.4,0,0.6,0.1,0.6,0.4c0,0.3-0.3,0.5-1,0.5c-2.8,0-6.4-0.1-7.1-0.1c-0.9,0-4,0.1-5.9,0.1c-0.6,0-1-0.1-1-0.5
				c0-0.2,0.2-0.4,0.8-0.4c0.7,0,1.3-0.1,1.7-0.2c1-0.2,1.2-1.3,1.4-2.7c0.2-2,0.2-5.9,0.2-10.3V145z M432.9,148.8
				c0,0.5,0.1,0.7,0.4,0.9c1,0.3,2.5,0.5,3.7,0.5c1.9,0,2.6-0.2,3.4-0.8c1.5-1.1,2.9-3.3,2.9-7.3c0-6.9-4.6-8.9-7.4-8.9
				c-1.2,0-2.1,0-2.6,0.2c-0.3,0.1-0.4,0.3-0.4,0.7V148.8z"/>
			<path class="st1" d="M480.3,155.2c-0.2,0-0.3,0.1-0.4,0.4l-2.6,6.6c-0.5,1.2-0.7,2.4-0.7,3c0,0.9,0.4,1.5,1.9,1.5h0.7
				c0.6,0,0.7,0.1,0.7,0.4c0,0.4-0.3,0.5-0.8,0.5c-1.6,0-3.6-0.1-5.1-0.1c-0.5,0-3.2,0.1-5.7,0.1c-0.6,0-0.9-0.1-0.9-0.5
				c0-0.3,0.2-0.4,0.6-0.4c0.4,0,1.1,0,1.5-0.1c2.2-0.3,3.2-1.9,4.1-4.4l12.2-30.1c0.6-1.4,0.9-1.9,1.4-1.9c0.4,0,0.7,0.4,1.2,1.6
				c1.2,2.7,8.9,22.1,12,29.4c1.8,4.4,3.3,5,4.3,5.3c0.7,0.1,1.5,0.2,2,0.2c0.4,0,0.6,0,0.6,0.4c0,0.4-0.4,0.5-2.2,0.5
				c-1.7,0-5.3,0-9.2-0.1c-0.9,0-1.5,0-1.5-0.4c0-0.3,0.2-0.4,0.7-0.4c0.3-0.1,0.7-0.5,0.4-1.1l-3.9-10c-0.1-0.2-0.2-0.3-0.5-0.3
				H480.3z M490.2,152.8c0.2,0,0.3-0.1,0.2-0.3l-4.4-11.9c0-0.2-0.1-0.4-0.2-0.4c-0.1,0-0.2,0.2-0.3,0.4l-4.5,11.9
				c0,0.2,0,0.3,0.2,0.3H490.2z"/>
			<path class="st1" d="M519.5,135.7c-1.1-2.7-1.9-3.2-3.7-3.7c-0.7-0.2-1.5-0.2-1.9-0.2c-0.4,0-0.6-0.1-0.6-0.4
				c0-0.4,0.5-0.4,1.3-0.4c2.6,0,5.3,0.1,7,0.1c1.2,0,3.5-0.1,6-0.1c0.6,0,1.1,0.1,1.1,0.4s-0.3,0.4-0.7,0.4c-0.8,0-1.5,0-1.9,0.3
				c-0.3,0.2-0.5,0.6-0.5,1c0,0.6,0.4,2,1.1,3.7l8.3,22h0.2c2.1-5.3,8.4-21,9.6-24.2c0.2-0.6,0.4-1.4,0.4-1.8c0-0.4-0.2-0.8-0.6-0.9
				c-0.6-0.2-1.3-0.2-1.9-0.2c-0.4,0-0.8,0-0.8-0.4c0-0.4,0.4-0.5,1.4-0.5c2.4,0,4.5,0.1,5.1,0.1c0.8,0,3.1-0.1,4.6-0.1
				c0.6,0,1,0.1,1,0.4s-0.3,0.4-0.8,0.4c-0.5,0-1.5,0-2.4,0.6c-0.6,0.4-1.4,1.3-2.7,4.4c-1.9,4.6-3.2,7.2-5.8,13.1
				c-3.1,7.1-5.4,12.4-6.5,14.8c-1.3,2.8-1.6,3.6-2.2,3.6c-0.6,0-0.9-0.7-1.8-3L519.5,135.7z"/>
			<path class="st1" d="M573.6,145c0-7.4,0-8.7-0.1-10.3c-0.1-1.6-0.5-2.4-2.1-2.8c-0.4-0.1-1.2-0.1-1.9-0.1c-0.5,0-0.8-0.1-0.8-0.4
				s0.3-0.4,1.1-0.4c1.3,0,2.7,0,3.9,0c1.3,0,2.4,0.1,3.1,0.1c1.6,0,11.2,0,12.1,0c0.9-0.1,1.7-0.2,2.1-0.3c0.2,0,0.5-0.2,0.8-0.2
				c0.2,0,0.3,0.2,0.3,0.4c0,0.3-0.2,0.9-0.4,3.2c0,0.5-0.1,2.6-0.2,3.2c0,0.2-0.1,0.5-0.5,0.5c-0.3,0-0.4-0.2-0.4-0.7
				c0-0.3,0-1.2-0.3-1.7c-0.3-0.9-0.8-1.5-3.3-1.7c-0.8-0.1-5.9-0.2-6.9-0.2c-0.2,0-0.3,0.1-0.3,0.5v12.3c0,0.3,0,0.5,0.3,0.5
				c1.1,0,6.6,0,7.8-0.1c1.2-0.1,1.9-0.2,2.3-0.7c0.3-0.4,0.5-0.6,0.8-0.6c0.2,0,0.3,0.1,0.3,0.4s-0.2,1.1-0.4,3.5
				c0,1-0.2,2.9-0.2,3.3c0,0.4,0,0.9-0.4,0.9c-0.3,0-0.4-0.2-0.4-0.4c0-0.5,0-1.1-0.2-1.7c-0.2-1-0.9-1.7-2.7-1.9
				c-0.9-0.1-5.7-0.1-6.9-0.1c-0.2,0-0.3,0.2-0.3,0.5v3.8c0,1.6,0,6.1,0,7.5c0.1,3.3,0.9,4.1,5.8,4.1c1.3,0,3.3,0,4.6-0.6
				c1.3-0.6,1.8-1.6,2.2-3.6c0.1-0.5,0.2-0.7,0.5-0.7c0.4,0,0.4,0.4,0.4,0.9c0,1.1-0.4,4.4-0.6,5.4c-0.3,1.3-0.8,1.3-2.6,1.3
				c-3.6,0-6.3-0.1-8.4-0.1c-2.1-0.1-3.6-0.1-5-0.1c-0.5,0-1.6,0-2.8,0c-1.1,0-2.4,0.1-3.3,0.1c-0.6,0-1-0.1-1-0.5
				c0-0.2,0.2-0.4,0.8-0.4c0.7,0,1.3-0.1,1.7-0.2c1-0.2,1.2-1.3,1.4-2.7c0.2-2,0.2-5.9,0.2-10.3V145z"/>
			<path class="st1" d="M624.9,153.5c0,6.2,0,9.6,1,10.4c0.8,0.7,2.1,1.1,5.9,1.1c2.6,0,4.5,0,5.7-1.4c0.6-0.6,1.2-2,1.3-2.9
				c0-0.4,0.1-0.7,0.5-0.7c0.3,0,0.4,0.2,0.4,0.8c0,0.5-0.3,4.2-0.7,5.6c-0.3,1.1-0.5,1.3-3.1,1.3c-3.5,0-6-0.1-8.2-0.1
				c-2.2-0.1-3.9-0.1-5.9-0.1c-0.5,0-1.6,0-2.8,0c-1.1,0-2.4,0.1-3.3,0.1c-0.6,0-1-0.1-1-0.5c0-0.2,0.2-0.4,0.8-0.4
				c0.7,0,1.3-0.1,1.7-0.2c1-0.2,1.2-1.3,1.4-2.7c0.2-2,0.2-5.9,0.2-10.3V145c0-7.4,0-8.7-0.1-10.3c-0.1-1.6-0.5-2.4-2.1-2.8
				c-0.4-0.1-1-0.1-1.6-0.1c-0.5,0-0.8-0.1-0.8-0.4s0.3-0.4,1.1-0.4c2.3,0,5.3,0.1,6.6,0.1c1.2,0,4.7-0.1,6.6-0.1c0.7,0,1,0.1,1,0.4
				s-0.3,0.4-0.9,0.4c-0.5,0-1.3,0-1.9,0.1c-1.3,0.2-1.7,1.1-1.8,2.8c-0.1,1.6-0.1,2.9-0.1,10.3V153.5z"/>
		</g>
	</g>
	<rect x="194.3" y="146.4" class="st1" width="163.6" height="4.9"/>
	<rect x="648.9" y="146.4" class="st1" width="165.2" height="4.9"/>
</g>
<g>
	<defs>
		<path id="SVGID_1_" d="M161.7,70.1c-1.7-5-11.7-3.7-17.4-5c-5.6-1.2-6.5-4.1-9.9-12.2c0-0.1-0.1-0.2-0.1-0.2
			c-0.3-0.7-0.6-1.4-0.8-2.2c-1.4-4.1-2.3-8.4-3.6-12.6c-1.2-3.8-2.6-7.5-5.1-10.6c-3-3.7-5.6-5.6-8.6-6.9c-2.7-1.1-5.7-1.7-9.6-2.7
			c-0.2-0.1-0.4-0.1-0.6-0.2c-1.2-0.3-3.9,0.3-4.1,0.7c0.2-0.4-8.8,1.8-15.2,2.8c-1.2,0.2-2.3,0.1-3.2-0.2
			c-5.1-1.6-6.7-9.3-11.1-13.1c-5.2-4.6-6.1-7.5-13-3.7c-7,3.7-33.1,7.5-33.9,10.4c-0.9,2.9-4.3,7.1-5.7,9.6
			c-1.3,2.5-6.5,3.7-10,7.9C6,36,1.7,41.4,2.5,49.3c0.3,2.4,0.4,4.9,0.4,7.1l-0.4,8.5c0,0.1,0,0.2,0,0.2h0c0,0-0.4,2.2-0.1,2.9
			C4.6,73,13.8,78,19,82.6c5.2,4.6,5.2,5.4,10,4.2c4.8-1.2,12.6-4.6,19.6-2.9c1.1,0.3,2,0.5,2.9,0.7c4.7,1.1,6.1,1.4,7.6,5.6
			c0.6,1.6,0.6,4,1.8,7.7c1.5,4.5,5.6,9.9,6.4,10.7c0.7,0.7,2.4,2.2,3,2.8c1.2,1.1,1.4,1.9,1.4,4.6c0,5.9-0.7,9.2-0.2,14.8
			c0.1,0.7,0.1,1.5,0.2,2.2c0,0.2,0.1,0.5,0.1,0.7c0.9,7,3.1,16.3,7.7,25.9c0.3,0.6,0.5,1.1,0.8,1.7c0.6,1.3,1.1,2.5,1.5,3.7
			c2.5,6.6,3.1,10.3,7.2,11.3c1.1,0.3,2.8,0.6,4.8,0.8c0.9,0.1,1.8,0.1,2.8,0.1c5.6-0.2,12.4-2.3,15.5-10.8c2.1-5.8,2.2-7.1,6.1-9.2
			c3.9-2.1,5.2-3.3,5.7-7.5c0.4-4.2,1.7-5.8,7-12.1c4.2-5,6.2-7.6,6.3-11.3c0-0.4,0-0.8,0-1.2c0-0.5-0.1-1.1-0.2-1.6
			c-0.7-4.1-1.3-7.8-1.6-11.8c-0.1-1.2-0.1-2.5-0.1-3.8c0-0.9,0.2-1.7,0.6-2.4c1.7-3.4,7.4-4.8,13.5-10.8c0.4-0.4,0.8-0.8,1.2-1.2
			c0.6-0.7,1.2-1.3,1.8-2C159,83.5,163.3,74.7,161.7,70.1z"/>
	</defs>
	<clipPath id="SVGID_00000139278142689769058050000011475219323196484281_">
		<use xlink:href="#SVGID_1_"  style="overflow:visible;"/>
	</clipPath>
	<g style="clip-path:url(#SVGID_00000139278142689769058050000011475219323196484281_);">
		<path class="st3" d="M161.7,70.1c-1.7-5-11.7-3.7-17.4-5c-5.6-1.2-6.5-4.1-9.9-12.2c0-0.1-0.1-0.2-0.1-0.2
			c-0.3-0.7-0.6-1.4-0.8-2.2c-1.4-4.1-2.3-8.4-3.6-12.6c-1.2-3.8-2.6-7.5-5.1-10.6c-3-3.7-5.6-5.6-8.6-6.9c-2.7-1.1-5.7-1.7-9.6-2.7
			c-0.2-0.1-0.4-0.1-0.6-0.2c-1.2-0.3-3.9,0.3-4.1,0.7c0.2-0.4-8.8,1.8-15.2,2.8c-1.2,0.2-2.3,0.1-3.2-0.2
			c-5.1-1.6-6.7-9.3-11.1-13.1c-5.2-4.6-6.1-7.5-13-3.7c-7,3.7-33.1,7.5-33.9,10.4c-0.9,2.9-4.3,7.1-5.7,9.6
			c-1.3,2.5-6.5,3.7-10,7.9C6,36,1.7,41.4,2.5,49.3c0.3,2.4,0.4,4.9,0.4,7.1l-0.4,8.5c0,0.1,0,0.2,0,0.2h0c0,0-0.4,2.2-0.1,2.9
			C4.6,73,13.8,78,19,82.6c5.2,4.6,5.2,5.4,10,4.2c4.8-1.2,12.6-4.6,19.6-2.9c1.1,0.3,2,0.5,2.9,0.7c4.7,1.1,6.5,1.7,7.6,5.6
			c0.4,1.3,0.8,2.8,1.2,4.2c0.4,1.4,1,2.9,1.6,4.3c1,2.1,2.3,4.3,4.1,6.6c1.4,1.7,2.4,2.7,3.2,3.5c0.7,0.7,1.3,1.3,1.6,2
			c0.5,1.1,0.8,2.5,0.8,5.2c0,5.9-0.7,9.2-0.2,14.8c0.1,0.7,0.1,1.5,0.2,2.2c0,0.2,0.1,0.5,0.1,0.7c0.9,7,3.1,16.3,7.7,25.9
			c0.3,0.6,0.5,1.1,0.8,1.7c0.6,1.3,1.1,2.5,1.5,3.7c2.5,6.6,3.1,10.3,7.2,11.3c1.1,0.3,2.8,0.6,4.8,0.8c0.9,0.1,1.8,0.1,2.8,0.1
			c5.6-0.2,12.4-2.3,15.5-10.8c2.1-5.8,2.2-7.1,6.1-9.2c3.9-2.1,5.2-3.3,5.7-7.5c0.4-4.2,1.7-5.8,7-12.1c4.2-5,6.2-7.6,6.3-11.3
			c0-0.4,0-0.8,0-1.2c0-0.5-0.1-1.1-0.2-1.6c-0.7-4.1-1.3-7.8-1.6-11.8c-0.1-1.2-0.1-2.5-0.1-3.8c0-0.9,0.2-1.7,0.6-2.4
			c1.7-3.4,7.4-4.8,13.5-10.8c0.4-0.4,0.8-0.8,1.2-1.2c0.6-0.7,1.2-1.3,1.8-2C159,83.5,163.3,74.7,161.7,70.1z"/>
		<g>
			<defs>
				<path id="SVGID_00000137846497902240685290000015726548843801491871_" d="M161.7,70.1c-1.7-5-11.7-3.7-17.4-5
					c-5.6-1.2-6.5-4.1-9.9-12.2c0-0.1-0.1-0.2-0.1-0.2c-0.3-0.7-0.6-1.4-0.8-2.2c-1.4-4.1-2.3-8.4-3.6-12.6
					c-1.2-3.8-2.6-7.5-5.1-10.6c-3-3.7-5.6-5.6-8.6-6.9c-2.7-1.1-5.7-1.7-9.6-2.7c-0.2-0.1-0.4-0.1-0.6-0.2
					c-1.2-0.3-3.9,0.3-4.1,0.7c0.2-0.4-8.8,1.8-15.2,2.8c-1.2,0.2-2.3,0.1-3.2-0.2c-5.1-1.6-6.7-9.3-11.1-13.1
					c-5.2-4.6-6.1-7.5-13-3.7c-7,3.7-33.1,7.5-33.9,10.4c-0.9,2.9-4.3,7.1-5.7,9.6c-1.3,2.5-6.5,3.7-10,7.9C6,36,1.7,41.4,2.5,49.3
					c0.3,2.4,0.4,4.9,0.4,7.1l-0.4,8.5c0,0.1,0,0.2,0,0.2h0c0,0-0.4,2.2-0.1,2.9C4.6,73,13.8,78,19,82.6c5.2,4.6,5.2,5.4,10,4.2
					c4.8-1.2,12.6-4.6,19.6-2.9c1.1,0.3,2,0.5,2.9,0.7c4.7,1.1,6.5,1.7,7.6,5.6c0.4,1.3,0.8,2.8,1.2,4.2c0.4,1.4,1,2.9,1.6,4.3
					c1,2.1,2.3,4.3,4.1,6.6c1.4,1.7,2.4,2.7,3.2,3.5c0.7,0.7,1.3,1.3,1.6,2c0.5,1.1,0.8,2.5,0.8,5.2c0,5.9-0.7,9.2-0.2,14.8
					c0.1,0.7,0.1,1.5,0.2,2.2c0,0.2,0.1,0.5,0.1,0.7c0.9,7,3.1,16.3,7.7,25.9c0.3,0.6,0.5,1.1,0.8,1.7c0.6,1.3,1.1,2.5,1.5,3.7
					c2.5,6.6,3.1,10.3,7.2,11.3c1.1,0.3,2.8,0.6,4.8,0.8c0.9,0.1,1.8,0.1,2.8,0.1c5.6-0.2,12.4-2.3,15.5-10.8
					c2.1-5.8,2.2-7.1,6.1-9.2c3.9-2.1,5.2-3.3,5.7-7.5c0.4-4.2,1.7-5.8,7-12.1c4.2-5,6.2-7.6,6.3-11.3c0-0.4,0-0.8,0-1.2
					c0-0.5-0.1-1.1-0.2-1.6c-0.7-4.1-1.3-7.8-1.6-11.8c-0.1-1.2-0.1-2.5-0.1-3.8c0-0.9,0.2-1.7,0.6-2.4c1.7-3.4,7.4-4.8,13.5-10.8
					c0.4-0.4,0.8-0.8,1.2-1.2c0.6-0.7,1.2-1.3,1.8-2C159,83.5,163.3,74.7,161.7,70.1z"/>
			</defs>
			<clipPath id="SVGID_00000083073752538073130610000002644950283066056327_">
				<use xlink:href="#SVGID_00000137846497902240685290000015726548843801491871_"  style="overflow:visible;"/>
			</clipPath>
			<g style="clip-path:url(#SVGID_00000083073752538073130610000002644950283066056327_);">
				<g>
					<g>
						<polygon class="st1" points="86.2,181 106.8,181 134.2,0.8 113.6,0.8 						"/>
						<path class="st5" d="M108,182.3H84.6l0.2-1.6L112.4-0.6h23.4L135.6,1L108,182.3z M87.7,179.6h17.9l27-177.5h-17.9L87.7,179.6z
							"/>
					</g>
					<g>
						
							<rect x="19" y="89.5" transform="matrix(0.1503 -0.9886 0.9886 0.1503 3.7912 186.1532)" class="st5" width="182.3" height="2.7"/>
					</g>
					<g>
						<polygon class="st1" points="115,0.8 135.6,0.8 163,181 142.4,181 						"/>
						<path class="st5" d="M164.6,182.3h-23.4l-0.2-1.1L113.4-0.6h23.4l0.2,1.1L164.6,182.3z M143.6,179.6h17.9l-27-177.5h-17.9
							L143.6,179.6z"/>
					</g>
					<g>
						
							<rect x="137.7" y="-0.3" transform="matrix(0.9886 -0.1505 0.1505 0.9886 -12.0901 21.9489)" class="st5" width="2.7" height="182.3"/>
					</g>
				</g>
				<g>
					<g>
						<polygon class="st1" points="78.2,0.8 57.5,0.8 30.1,181 50.8,181 						"/>
						<path class="st5" d="M51.9,182.3H28.5l0.2-1.6L56.4-0.6h23.4L79.5,1L51.9,182.3z M31.7,179.6h17.9l27-177.5H58.7L31.7,179.6z"
							/>
					</g>
					<g>
						
							<rect x="-37" y="89.5" transform="matrix(0.1503 -0.9886 0.9886 0.1503 -43.8367 130.7348)" class="st5" width="182.3" height="2.7"/>
					</g>
					<g>
						<polygon class="st1" points="49.4,181 28.7,181 1.3,0.8 21.9,0.8 						"/>
						<path class="st5" d="M50.9,182.3H27.6l-0.2-1.1L-0.3-0.6h23.4l0.2,1.1L50.9,182.3z M29.9,179.6h17.9L20.8,2.1H2.9L29.9,179.6z
							"/>
					</g>
					<g>
						
							<rect x="24" y="-0.3" transform="matrix(0.9886 -0.1505 0.1505 0.9886 -13.384 4.8464)" class="st5" width="2.7" height="182.3"/>
					</g>
					<g>
						<polygon class="st1" points="106.7,181 86.1,181 58.7,0.8 79.3,0.8 						"/>
						<path class="st5" d="M108.3,182.3H84.9l-0.2-1.1L57.1-0.6h23.4l0.2,1.1L108.3,182.3z M87.3,179.6h17.9L78.2,2.1H60.2
							L87.3,179.6z"/>
					</g>
					<g>
						
							<rect x="81.4" y="-0.3" transform="matrix(0.9886 -0.1505 0.1505 0.9886 -12.7309 13.4783)" class="st5" width="2.7" height="182.3"/>
					</g>
				</g>
			</g>
		</g>
		<g>
			<g>
				<circle class="st1" cx="91.7" cy="86.5" r="31.3"/>
				<path class="st5" d="M91.7,119.5c-18.2,0-33.1-14.8-33.1-33.1s14.8-33.1,33.1-33.1s33.1,14.8,33.1,33.1S109.9,119.5,91.7,119.5z
					 M91.7,57c-16.2,0-29.5,13.2-29.5,29.5s13.2,29.5,29.5,29.5s29.5-13.2,29.5-29.5S107.9,57,91.7,57z"/>
			</g>
			<g>
				<path class="st5" d="M91.7,111.3c-13.7,0-24.8-11.1-24.8-24.8S78,61.7,91.7,61.7s24.8,11.1,24.8,24.8S105.4,111.3,91.7,111.3z
					 M91.7,65.3c-11.7,0-21.2,9.5-21.2,21.2s9.5,21.2,21.2,21.2s21.2-9.5,21.2-21.2S103.4,65.3,91.7,65.3z"/>
			</g>
			<g>
				<path class="st5" d="M91.7,98c-6.3,0-11.5-5.2-11.5-11.5S85.4,75,91.7,75s11.5,5.2,11.5,11.5S98,98,91.7,98z M91.7,78.6
					c-4.4,0-7.9,3.5-7.9,7.9s3.5,7.9,7.9,7.9c4.4,0,7.9-3.5,7.9-7.9S96.1,78.6,91.7,78.6z"/>
			</g>
		</g>
	</g>
</g>
</svg>
