<?xml version="1.0" encoding="utf-8"?>
<!-- Generator: Adobe Illustrator 26.0.1, SVG Export Plug-In . SVG Version: 6.00 Build 0)  -->
<svg version="1.1" id="Layer_1" xmlns="http://www.w3.org/2000/svg" xmlns:xlink="http://www.w3.org/1999/xlink" x="0px" y="0px"
	 viewBox="0 0 193 52" style="enable-background:new 0 0 193 52;" xml:space="preserve">
<style type="text/css">
	.st0{clip-path:url(#SVGID_00000061447764614971224840000002938514513913297577_);}
	.st1{fill:#FFFFFF;}
</style>
<g>
	<g>
		<g>
			<defs>
				<rect id="SVGID_1_" x="2" y="-2" transform="matrix(0.7071 -0.7071 0.7071 0.7071 -8.7696 26.8284)" width="52" height="52"/>
			</defs>
			<clipPath id="SVGID_00000001636105141364134800000000390027529624953481_">
				<use xlink:href="#SVGID_1_"  style="overflow:visible;"/>
			</clipPath>
			<g style="clip-path:url(#SVGID_00000001636105141364134800000000390027529624953481_);">
				<path class="st1" d="M38,43.9L36,45.8c-0.2,0.2-0.4,0.3-0.7,0.4c-0.3,0.1-0.5,0.1-0.8,0c-0.3-0.1-0.5-0.2-0.7-0.4
					c-0.2-0.2-0.4-0.4-0.5-0.7l-5.6-14.8l-7.1,6.8l0.5,5.6c0.1,1.1,0,1.7-1,2.7L19,46.8c-0.2,0.2-0.4,0.4-0.7,0.5
					c-0.3,0.1-0.6,0.1-0.8,0.1c-0.4-0.1-1-0.3-1.4-1l-3.7-6.5c0,0-0.1-0.1-0.1-0.2c0,0,0,0,0,0c-0.1,0-0.1,0-0.2-0.1l-6.6-3.7
					c-0.7-0.4-0.9-0.9-1-1.3c0-0.3,0-0.5,0.1-0.8c0.1-0.3,0.2-0.5,0.4-0.7l1.4-1.4c0.7-0.7,1.8-1.1,2.7-1l5.5,0.5l6.9-7.1L6.7,18.6
					c-0.3-0.1-0.5-0.3-0.7-0.5c-0.2-0.2-0.3-0.5-0.4-0.7c-0.1-0.3,0-0.5,0-0.8C5.8,16.4,6,16.1,6.2,16L8.1,14c0.3-0.3,0.6-0.5,1-0.6
					c0.4-0.1,0.7-0.2,1.1-0.1l19.9,1.9l4-4.3c0.3-0.3,1.1-1.2,1.3-1.4c4-4,7.6-5,9.8-2.9c0.7,0.7,1.7,2.2,0.7,4.8
					c-0.6,1.5-1.8,3.2-3.5,5c-0.2,0.2-1,1-1.4,1.3l-4.3,4l1.9,19.9c0,0.4,0,0.8-0.1,1.1C38.4,43.3,38.2,43.6,38,43.9L38,43.9z"/>
			</g>
		</g>
	</g>
</g>
<g>
	<path class="st1" d="M63.2,19.9h-6.6V14h20.7v5.9h-6.6v16.5h-7.6V19.9z"/>
	<path class="st1" d="M88.9,30.8h-2v5.6h-7.6V14h10.8c2.1,0,3.9,0.3,5.4,1c1.5,0.7,2.7,1.7,3.6,2.9c0.8,1.3,1.2,2.8,1.2,4.5
		c0,1.6-0.4,3-1.1,4.2c-0.7,1.2-1.8,2.1-3.1,2.8l4.7,6.9h-8.1L88.9,30.8z M91.9,20.5c-0.5-0.5-1.3-0.7-2.3-0.7h-2.8v5.2h2.8
		c1,0,1.8-0.2,2.3-0.7c0.5-0.5,0.8-1.1,0.8-1.9S92.4,21,91.9,20.5z"/>
	<path class="st1" d="M118.4,32.5h-8.5l-1.5,3.9h-7.7l9.8-22.4h7.4l9.8,22.4h-7.8L118.4,32.5z M116.3,27.1l-2.2-5.6l-2.2,5.6H116.3z
		"/>
	<path class="st1" d="M151.6,14l-9.5,22.4h-7.4L125.2,14h8.1l5.3,13.1l5.5-13.1H151.6z"/>
	<path class="st1" d="M170.9,30.7v5.7h-18.6V14h18.2v5.7h-10.8v2.6h9.5v5.4h-9.5v2.9H170.9z"/>
	<path class="st1" d="M173.9,14h7.6v16.5h10.1v5.9h-17.7V14z"/>
</g>
</svg>
